<svg aria-hidden="true" style="position:absolute;width:0;height:0" xmlns="http://www.w3.org/2000/svg" overflow="hidden">
    <defs>
        <symbol id="mail" viewBox="0 0 43 32">
            <path fill="var(--color1, #757575)"
                d="M38.667 0H4C1.794 0 0 1.794 0 4v24c0 2.206 1.794 4 4 4h34.667c2.206 0 4-1.794 4-4V4c0-2.206-1.794-4-4-4zm0 2.667c.181 0 .353.038.511.103L21.334 18.236 3.49 2.77c.158-.066.33-.103.511-.103h34.667zm0 26.666H4c-.736 0-1.333-.598-1.333-1.333V5.587L20.46 21.008c.251.217.563.326.874.326s.622-.108.874-.326L40.001 5.587V28c0 .736-.598 1.333-1.333 1.333z" />
        </symbol>
        <symbol id="tel" viewBox="0 0 20 32">
            <path fill="var(--color1, #757575)"
                d="M17 0H3C1.346 0 0 1.346 0 3v26c0 1.654 1.346 3 3 3h14c1.654 0 3-1.346 3-3V3c0-1.654-1.346-3-3-3zM3 2h14c.552 0 1 .448 1 1v21H2V3c0-.552.448-1 1-1zm14 28H3c-.552 0-1-.448-1-1v-3h16v3c0 .552-.448 1-1 1z" />
            <path fill="var(--color1, #757575)"
                d="M4.707 27.478c.391.365.391.956 0 1.321s-1.024.365-1.414 0c-.391-.365-.391-.956 0-1.321s1.024-.365 1.414 0z" />
        </symbol>
        <symbol id="antena" viewBox="0 0 32 32">
            <path fill="var(--color2, #212121)"
                d="M30.773 22.098l-8.443-8.505.937-4.615c.242.094.499.144.758.146h.006c1.192.014 2.17-.941 2.184-2.133s-.941-2.17-2.133-2.184c-1.192-.014-2.17.941-2.184 2.133-.003.255.039.509.125.749l-4.96.605L8.972.161C8.873.06 8.737.002 8.595.001c-.14.001-.274.056-.373.155L6.709 1.66c-.208.208-.208.546 0 .754l.814.826C4.37 9.038 5.394 16.218 10.042 20.903c.043.041.092.074.146.098-.034.18-.051.364-.052.547v6.187h-6.4c-1.472.002-2.665 1.195-2.667 2.667v1.067c0 .295.239.533.533.533h24.533c.295 0 .533-.239.533-.533v-1.067c-.002-1.472-1.195-2.665-2.667-2.667h-6.4v-2.742c1.003.21 2.024.317 3.049.32 2.458-.003 4.877-.615 7.04-1.783l.818.823c.099.101.235.159.377.16.14-.001.274-.056.373-.155l1.512-1.504c.208-.208.208-.546 0-.754zM23.28 6.233c.418-.415 1.093-.414 1.508.004s.414 1.093-.004 1.508c-.2.199-.47.31-.752.31h-.003c-.589-.003-1.064-.483-1.061-1.072.001-.282.114-.552.314-.751h-.002zm-1.256 3.505l-.598 2.946-1.175-1.182 1.774-1.763zm-.606-.902l-1.92 1.909-1.485-1.493 3.405-.415zM24.004 28.8c.884 0 1.6.716 1.6 1.6v.533H2.137V30.4c0-.884.716-1.6 1.6-1.6h20.267zm-7.467-2.133v1.067h-5.333v-1.067h5.333zM11.204 25.6v-4.053c0-1.294 1.196-2.347 2.667-2.347s2.667 1.053 2.667 2.347V25.6h-5.333zm6.4-1.696v-2.357c0-1.882-1.675-3.413-3.733-3.413-1.331-.02-2.576.657-3.281 1.786C6.532 15.646 5.619 9.275 8.311 4.033l18.602 18.708c-2.872 1.461-6.165 1.873-9.309 1.163zm11.289-.684L7.836 2.039l.755-.752 7.935 7.98c.004 0 .006.007.01.01l13.115 13.191-.757.752z" />
            <path fill="var(--color3, #2196f3)"
                d="M13.876 20.267h-.005c-.884-.001-1.601.714-1.602 1.598s.714 1.601 1.598 1.602h.005c.884.001 1.601-.714 1.602-1.598s-.714-1.601-1.598-1.602zm.373 1.978c-.1.1-.236.156-.378.155-.295-.002-.532-.242-.53-.536.001-.141.057-.276.157-.375s.233-.154.373-.155c.295.002.532.241.531.536-.001.141-.057.276-.157.375h.005z" />
        </symbol>
        <symbol id="clock" viewBox="0 0 32 32">
            <path fill="var(--color2, #212121)"
                d="M31.297 15.301C31.295 6.849 24.442-.002 15.989 0S.686 6.855.688 15.308c.001 6.658 4.307 12.551 10.649 14.576.061.019.124.029.187.029.121 0 .239-.032.343-.094.135-.08.236-.207.283-.356l3.865-12.25c1.057-.005 1.909-.866 1.903-1.923s-.866-1.909-1.923-1.903c-.284.001-.565.067-.82.191l-5.106-5.107c-.253-.245-.657-.238-.902.016-.239.247-.239.639 0 .886l5.103 5.109c-.392.799-.168 1.764.536 2.309l-3.683 11.673C3.845 25.783.119 17.71 2.8 10.432S13.554-.572 20.832 2.109c7.278 2.681 11.004 10.754 8.324 18.032-1.31 3.556-4.001 6.431-7.462 7.973l-.398-1.874c-.073-.344-.411-.565-.756-.492-.109.023-.209.074-.292.148l-3.837 3.426c-.263.234-.287.637-.052.9.076.085.174.149.283.184l4.899 1.563c.335.108.694-.077.802-.412.034-.106.04-.219.017-.328l-.391-1.839c5.664-2.388 9.342-7.942 9.329-14.089zm-15.305-.637c.352 0 .638.286.638.638s-.286.638-.638.638c-.352 0-.638-.285-.638-.638s.285-.638.638-.638zm2.101 14.864l2.184-1.948.603 2.84-2.787-.892z" />
            <path fill="var(--color3, #2196f3)"
                d="M15.354 3.185V4.46c0 .352.285.638.638.638s.638-.285.638-.638V3.185c0-.352-.286-.638-.638-.638s-.638.286-.638.638zM3.876 14.664c-.352 0-.638.286-.638.638s.285.638.638.638h1.275c.352 0 .638-.285.638-.638s-.285-.638-.638-.638H3.876zm24.232 1.275c.352 0 .638-.285.638-.638s-.285-.638-.638-.638h-1.275c-.352 0-.638.286-.638.638s.286.638.638.638h1.275z" />
        </symbol>
        <symbol id="diagram" viewBox="0 0 32 32">
            <path fill="var(--color3, #2196f3)"
                d="M14.926 14.965h1.066v4.798h-1.066v-4.797zm4.264 2.132h1.066v2.665H19.19v-2.665zm-8.529 1.599h1.066v1.066h-1.066v-1.066zm-3.198-.533h1.066v1.599H7.463v-1.599z" />
            <path fill="var(--color2, #212121)"
                d="M1.599 28.291h25.587c.883 0 1.599-.716 1.599-1.599V24.56c0-.883-.716-1.599-1.599-1.599h-.533V9.668L29.681 6.8c.703.346 1.553.136 2.013-.499s.396-1.508-.152-2.068-1.42-.644-2.065-.198c-.644.446-.873 1.292-.542 2.002L26.654 8.2V6.97c0-.883-.716-1.599-1.599-1.599H3.733c-.883 0-1.599.716-1.599 1.599v15.992h-.533c-.883 0-1.599.716-1.599 1.599v2.132c0 .883.716 1.599 1.599 1.599zM30.384 4.837c.294 0 .533.239.533.533s-.239.533-.533.533c-.294 0-.533-.239-.533-.533s.239-.533.533-.533zM3.198 6.969c0-.294.239-.533.533-.533h21.322c.294 0 .533.239.533.533v2.239l-1.066 1.013V8.035c0-.294-.239-.533-.533-.533H4.797c-.294 0-.533.239-.533.533v13.326c0 .294.239.533.533.533h19.19c.294 0 .533-.239.533-.533v-9.674l1.066-1.01v12.284H3.198V6.969zm4.798 6.93c-.721-.002-1.354.478-1.546 1.174s.105 1.433.725 1.801c.62.368 1.41.276 1.928-.226l1.853.93c.215.108.476.057.636-.123l3.939-4.431 3.872 2.901c.208.156.498.139.686-.039l3.365-3.188v8.131H5.33V8.569h18.124v2.66l-3.771 3.572-3.904-2.927c-.222-.166-.534-.135-.718.072l-3.993 4.493-1.493-.746c.011-.064.018-.129.02-.193 0-.883-.716-1.599-1.599-1.599zm.533 1.599c0 .294-.239.533-.533.533s-.533-.239-.533-.533c0-.294.239-.533.533-.533s.533.239.533.533zm3.198 8.528h5.331v.533c0 .294-.239.533-.533.533h-4.264c-.294 0-.533-.239-.533-.533v-.533zm-10.661.534c0-.294.239-.533.533-.533h9.062v.533c0 .883.716 1.599 1.599 1.599h4.264c.883 0 1.599-.716 1.599-1.599v-.533h9.062c.294 0 .533.239.533.533v2.132c0 .294-.239.533-.533.533H1.598c-.294 0-.533-.239-.533-.533V24.56z" />
        </symbol>
        <symbol id="astronaut" viewBox="0 0 32 32">
            <path fill="var(--color3, #2196f3)"
                d="M31.974 4.524c-.063-.193-.229-.333-.43-.363l-1.91-.278-.855-1.731c-.179-.365-.777-.365-.956 0l-.855 1.731-1.91.278c-.201.029-.367.17-.431.363-.062.193-.011.405.135.547l1.383 1.348-.326 1.903c-.034.2.048.402.212.522.166.121.382.135.562.04l1.709-.899 1.709.899c.078.041.164.061.249.061.11 0 .221-.034.314-.102.164-.119.246-.322.212-.522l-.326-1.903 1.383-1.348c.145-.142.197-.354.135-.547zm-2.463 1.327c-.125.122-.183.299-.153.472l.191 1.114-1-.526c-.078-.041-.163-.061-.249-.061s-.17.02-.249.061l-1.001.526.191-1.114c.03-.173-.028-.349-.153-.472l-.81-.789 1.119-.163c.174-.025.324-.134.402-.292l.5-1.013.5 1.013c.078.157.228.267.402.292l1.119.163-.809.789zm-3.377 14.671h-1.067v1.067h1.067v-1.067zm0 2.134h-1.067v1.067h1.067v-1.067zm1.066-1.067h-1.067v1.067H27.2v-1.067zm-2.133 0H24v1.067h1.067v-1.067zm-2.667 4.8h-1.067v1.067H22.4v-1.067zm0 2.133h-1.067v1.067H22.4v-1.067zm1.067-1.066H22.4v1.067h1.067v-1.067zm-2.134 0h-1.067v1.067h1.067v-1.067zM16 24.256h-1.067v1.067H16v-1.067zm0 2.133h-1.067v1.067H16v-1.067zm1.067-1.067H16v1.067h1.067v-1.067zm-2.134 0h-1.067v1.067h1.067v-1.067zm-9.066-19.2H4.8v1.067h1.067V6.122zm0 2.133H4.8v1.067h1.067V8.255zm1.066-1.066H5.866v1.067h1.067V7.189zm-2.133 0H3.733v1.067H4.8V7.189z" />
            <path fill="var(--color2, #212121)"
                d="M24.715 14.159c-.287-.388-.709-.637-1.188-.705-.481-.068-.956.058-1.34.352l-1.252.96-1.898 1.417-1.358-.541c2.421-1.086 4.114-3.508 4.114-6.32 0-3.823-3.123-6.933-6.961-6.933s-6.961 3.11-6.961 6.933c0 1.386.414 2.674 1.12 3.758l-2.769-.024c-.009 0-.015.004-.023.005-.053.002-.105.013-.155.031-.013.005-.026.008-.038.013-.006.003-.013.003-.019.006l-3.233 1.596c-.001 0-.001 0-.001.001l-1.893.911c-.021.009-.042.021-.063.035-.755.502-1.012 1.489-.598 2.295.22.429.595.745 1.056.889.178.055.359.083.539.083.29 0 .577-.071.839-.211l1.388-.738 2.264-1.169 1.357-.008L2.2 22.211c-.001.001-.001.001-.002.001L.859 23.545c-.316.315-.49.732-.49 1.178s.174.863.49 1.179c.325.323.752.485 1.179.485s.854-.162 1.18-.485l1.314-1.309 1.741-1.3.901.897-1.762 1.754c0 .001-.001.001-.002.001l-1.339 1.333c-.316.315-.49.732-.49 1.178s.174.863.49 1.179c.325.323.753.485 1.18.485s.855-.162 1.18-.485l3.482-3.467c.001-.001.001-.001.001-.002l1.01-1-.004-.004c.006-.006.015-.009.022-.015l5.166-5.658 3.471.494c.025.004.05.005.075.005.065 0 .127-.015.187-.038.018-.006.033-.015.05-.023.019-.01.039-.015.058-.027l3.213-2.133c.012-.008.018-.021.029-.029.013-.01.029-.014.041-.026l1.271-1.191c.662-.62.753-1.635.212-2.362zM2.13 17.77c-.173.093-.37.111-.558.052-.187-.058-.338-.186-.427-.358-.161-.314-.068-.695.214-.902l1.314-.632.449 1.313-.992.527zm3.498-1.828l-1.548.8-.439-1.283 2.027-1.001-.04 1.484zm15.099-6.62c0 .918-.219 1.785-.599 2.559l-4.181-1.899c-.044-.573-.341-1.075-.788-1.388l1.464-4.86c2.378.756 4.105 2.974 4.105 5.588zm-11.789 0c0-3.235 2.644-5.867 5.894-5.867.253 0 .5.021.745.052l-1.432 4.754c-.019-.001-.037-.006-.057-.006-1.033 0-1.873.837-1.873 1.867s.84 1.867 1.873 1.867c.694 0 1.294-.383 1.618-.945l3.862 1.755c-1.075 1.446-2.795 2.39-4.737 2.39-3.25 0-5.894-2.632-5.894-5.867zm5.956.8c0 .441-.362.8-.806.8s-.806-.359-.806-.8c0-.441.362-.8.806-.8s.806.359.806.8zM2.465 25.146c-.236.234-.619.234-.854.001-.114-.114-.176-.263-.176-.423s.062-.309.176-.421l.962-.959.851.848-.959.955zm3.214 3.734c-.236.234-.619.235-.855.001-.114-.114-.176-.263-.176-.423s.062-.309.176-.421l.963-.959.852.848-.96.955zm3.481-3.469c-.001 0-.001 0-.002.001l-1.765 1.76-.852-.848 1.763-1.756c.001-.001.001-.001.002-.001.04-.04.065-.088.09-.135.007-.014.02-.026.026-.04.017-.041.019-.085.026-.129.003-.025.014-.047.014-.073 0-.036-.013-.07-.02-.106-.006-.032-.006-.065-.019-.095-.02-.05-.055-.094-.091-.138-.01-.012-.014-.027-.025-.038h-.001c-.001 0-.001-.002-.001-.002l-1.607-1.6c-.017-.017-.039-.024-.058-.038-.028-.022-.055-.042-.087-.058-.03-.015-.061-.024-.093-.033-.034-.01-.067-.017-.103-.02-.033-.002-.063.001-.095.005-.036.004-.069.009-.104.02-.034.011-.063.027-.094.045-.02.011-.042.015-.061.029L4.23 23.485l-.901-.897 2.399-2.386 4.361 4.289-.928.919zm6.819-7.017c-.015-.002-.03.004-.045.003-.039-.002-.076.001-.115.007-.03.005-.059.011-.088.021-.034.012-.065.028-.097.047-.03.018-.057.037-.083.061-.013.011-.028.017-.04.029l-4.698 5.146-4.328-4.257 2.833-2.818c.209-.208.21-.546.002-.755-.105-.105-.243-.157-.381-.156v-.001l-2.219.013.028-1.607 3.104.027c1.265 1.294 3.029 2.101 4.981 2.101.437 0 .864-.045 1.279-.123.04.032.079.065.13.085l2.41.96.152.758.178.885-3.003-.427zm4.041.178l-.313-1.558 1.446-1.08.947 1.257-2.08 1.381zm3.754-2.831l-.838.785-.931-1.236.831-.637c.155-.119.351-.168.543-.143.193.027.364.128.48.284.217.292.18.699-.085.947z" />
            <path fill="var(--color2, #212121)"
                d="M13.602 18.544l-2.143-2.133c-.207-.207-.545-.207-.753 0l-2.142 2.133c-.1.101-.157.236-.157.378s.056.278.157.378l2.142 2.133c.104.103.241.155.377.155s.273-.052.376-.155l2.143-2.133c.1-.1.157-.236.157-.378s-.057-.278-.157-.378zm-2.519 1.759l-1.387-1.381 1.387-1.381 1.387 1.381-1.387 1.381zm6.081-15.232l-.258 1.036c.071.018 1.738.452 1.738 2.149h1.067c0-2.017-1.666-2.965-2.547-3.185zm2.547 4.251h-1.067v1.067h1.067V9.322z" />
        </symbol>
        <symbol id="client1" viewBox="0 0 60 32">
            <path fill="var(--color4, #afb1b8)" d="M24.533 7.111l2.598 2.46h7.248v6.861l2.598 2.46V7.111H24.533z" />
            <path fill="var(--color4, #afb1b8)"
                d="M22.4 9.467v11.444h12.089v-4.549L27.208 9.47 22.4 9.467zm9.786 9.771h-7.873v-7.697h.556v7.176h7.317v.521zm-6.305 3.796l.291-.599h.243l-.424.799v.465h-.22v-.465l-.424-.799h.244l.291.599zm1.249.371h-.49l-.102.294h-.228l.477-1.264h.197l.478 1.264h-.229l-.103-.294zm-.428-.177h.366l-.183-.524-.183.524zm1.293.13c0-.058.016-.112.048-.161s.095-.107.188-.174c-.049-.062-.084-.115-.103-.158s-.029-.085-.029-.126c0-.099.03-.177.09-.234s.141-.087.243-.087c.092 0 .167.027.226.082s.089.121.089.201c0 .053-.013.101-.04.146s-.07.088-.131.132l-.086.063.244.288c.035-.069.053-.147.053-.232h.183c0 .156-.036.283-.109.383l.186.22h-.245l-.071-.084c-.09.068-.198.102-.323.102s-.225-.033-.3-.099c-.075-.067-.112-.153-.112-.26zm.418.19c.071 0 .138-.024.2-.071l-.276-.326-.027.019c-.069.053-.104.113-.104.181 0 .058.019.106.056.142s.088.055.151.055zm-.116-.814c0 .049.03.11.089.183l.096-.066.027-.022c.036-.032.054-.073.054-.122 0-.033-.012-.061-.037-.084s-.056-.036-.095-.036c-.041 0-.074.014-.098.042s-.036.063-.036.105zm2.296.554c-.013.135-.063.24-.149.316s-.202.113-.346.113c-.101 0-.189-.024-.267-.071s-.135-.116-.177-.204-.063-.19-.065-.306v-.118c0-.119.021-.224.063-.315s.103-.161.181-.21c.079-.049.171-.074.274-.074.14 0 .252.038.337.114s.135.183.148.321h-.219c-.01-.091-.037-.156-.08-.196s-.104-.061-.187-.061c-.095 0-.169.035-.22.105s-.077.172-.078.306v.112c0 .137.024.241.073.313s.121.108.215.108c.086 0 .151-.019.194-.058s.071-.103.082-.194h.219zm1.206-.188c0 .124-.021.233-.064.326s-.104.165-.184.215c-.079.05-.171.075-.274.075-.102 0-.194-.025-.274-.075s-.142-.122-.186-.214c-.043-.093-.065-.199-.066-.32v-.071c0-.123.022-.232.065-.326s.106-.166.185-.216c.08-.05.171-.076.274-.076s.194.025.273.075c.08.049.142.12.185.213s.065.201.066.324v.07zm-.22-.066c0-.14-.027-.247-.08-.322s-.128-.112-.225-.112c-.095 0-.169.037-.223.112s-.08.179-.082.315v.073c0 .139.027.246.081.322s.13.114.226.114c.097 0 .172-.037.224-.111s.079-.182.079-.325v-.066z" />
        </symbol>
        <symbol id="client2" viewBox="0 0 60 32">
            <path fill="var(--color4, #afb1b8)"
                d="M29.147 7.799h.049c.09 0 .187.009.283.017.424.03.845.093 1.259.19V6.988c-.426-.107-.861-.176-1.3-.207-.166-.013-.344-.021-.525-.025h-.152c-.88.003-1.756.116-2.608.336-.971.242-1.902.621-2.768 1.126v10.097c.833-.453 1.719-.798 2.638-1.028.725-.185 1.467-.299 2.214-.34h.03c.125-.006.25-.01.379-.011v-1.034c-.971.012-1.937.141-2.878.382-.348.09-.684.188-1 .297l-.36.122V8.831l.154-.074c1.174-.557 2.443-.88 3.739-.954.011-.001.022-.001.032 0 .143-.007.287-.011.428-.011h.162c.075.002.149.004.224.008z" />
            <path fill="var(--color4, #afb1b8)"
                d="M31.684 8.865c-.237 0-.47-.008-.696-.025-.27-.02-.547-.052-.809-.097-.16-.027-.317-.06-.47-.095v9.981c.647.16 1.312.239 1.979.233.88-.004 1.756-.116 2.608-.335.971-.242 1.903-.621 2.769-1.126V7.484c-.833.452-1.719.798-2.637 1.029-.896.23-1.817.348-2.742.352zm3.991.173l.36-.121v7.875l-.154.074c-.59.281-1.206.502-1.84.661-.769.199-1.56.301-2.354.305-.237 0-.473-.01-.702-.03l-.246-.022V9.682l.287.019c.209.014.425.02.659.02 1.008-.004 2.012-.132 2.989-.383.336-.089.669-.188 1-.299zM24.084 21.764c-.052-.054-.114-.096-.183-.124s-.143-.041-.217-.038c-.079-.001-.158.014-.231.043-.067.027-.129.067-.18.118s-.09.113-.116.181c-.028.071-.042.147-.041.223v1.349c-.003.095.015.19.053.277.032.069.078.131.135.181.054.045.117.078.185.096.066.018.133.028.201.028.075.001.149-.015.218-.047.067-.029.129-.072.18-.125.05-.052.09-.114.118-.181.029-.068.044-.141.043-.215v-.151h-.353v.12c.001.041-.006.082-.021.12-.012.029-.029.055-.051.076-.022.018-.047.031-.074.039-.024.008-.049.012-.074.013-.031.004-.063-.001-.092-.014s-.054-.033-.073-.059c-.033-.054-.05-.117-.047-.181v-1.258c-.002-.07.013-.139.043-.202.018-.028.044-.051.075-.066s.064-.02.098-.016c.03-.001.061.005.088.018s.051.033.069.057c.039.052.06.116.058.181v.117h.349v-.137c.001-.081-.014-.161-.043-.236-.026-.071-.066-.135-.118-.19zm2.095-.015c-.112-.095-.254-.147-.401-.148-.072 0-.143.013-.21.038-.068.025-.132.062-.186.11-.058.052-.105.117-.137.189-.036.082-.053.172-.051.261v1.294c-.002.091.015.181.051.265.032.07.079.131.137.181.054.05.117.089.186.114.067.025.139.038.21.038s.143-.013.21-.038c.07-.026.135-.064.191-.114s.102-.112.133-.181c.036-.084.054-.174.051-.265v-1.294c.002-.09-.016-.179-.051-.261-.031-.071-.077-.136-.133-.189zm-.164 1.744c.003.035-.002.069-.014.102s-.031.062-.056.086c-.047.039-.105.06-.166.06s-.119-.021-.166-.06c-.025-.024-.044-.053-.056-.086s-.017-.067-.014-.102v-1.294c-.003-.035.002-.069.014-.102s.031-.062.056-.086c.047-.039.105-.06.166-.06s.119.021.166.06c.025.024.044.053.056.086s.017.067.014.102v1.294zm2.916.578v-2.449h-.339l-.445 1.297h-.006l-.449-1.297h-.335v2.449h.35v-1.49h.006l.343 1.053h.174l.345-1.053h.006v1.49h.35zm1.987-2.278c-.054-.06-.122-.106-.198-.134-.082-.027-.168-.039-.254-.038h-.52v2.449h.349v-.957h.18c.109.005.217-.018.315-.067.079-.044.145-.109.192-.187.04-.065.068-.138.08-.213.014-.092.02-.185.019-.278.003-.118-.008-.235-.034-.35-.023-.085-.068-.162-.129-.225zm-.18.747c-.002.044-.013.088-.032.128-.02.038-.052.068-.09.086-.052.023-.108.034-.165.031h-.159v-.833h.18c.054-.003.108.008.157.031.036.021.065.052.082.09.019.043.029.089.031.137v.163c0 .057.004.116 0 .168h-.004zm1.834-.918h-.286l-.54 2.449h.349l.103-.526h.476l.103.526h.349l-.553-2.449zm-.322 1.589l.172-.888h.006l.171.888h-.349zm2.577-.114h-.006l-.527-1.476h-.335v2.449h.349v-1.473h.007l.533 1.473h.328v-2.449h-.349v1.476zm2.132-1.475l-.281.974h-.007l-.281-.974h-.37l.479 1.414v1.035h.349v-1.035l.479-1.414h-.369zm-13.848 3.14h.168v.472h.114v-.472h.167v-.097h-.45v.097zm1.414-.096l-.22.569h.121l.047-.129h.227l.049.129h.124l-.226-.569h-.121zm-.018.343l.077-.211.077.211h-.155zm1.416.016h.131v.073c-.038.031-.086.048-.135.048-.023.001-.046-.003-.067-.012s-.039-.024-.054-.042c-.03-.043-.045-.096-.042-.148 0-.127.055-.19.164-.19.029-.003.057.005.081.021s.041.041.048.069l.112-.022c-.024-.111-.104-.167-.241-.167-.073-.002-.144.024-.199.073-.029.028-.051.063-.065.1s-.02.078-.017.118c-.003.078.023.154.073.213.028.029.062.051.099.065s.077.02.117.018c.089.003.175-.03.241-.09v-.224h-.246v.096zm1.427-.359h-.115v.569h.398v-.097h-.283v-.472zm1.207 0h-.115v.569h.115v-.569zm1.18.38l-.233-.38h-.112v.569h.107v-.372l.228.372h.114v-.569h-.105v.38zm1.067-.062h.283v-.097h-.283v-.125h.305v-.097h-.42v.569h.432v-.097h-.317v-.154zm2.587-.094h-.224v-.224h-.114v.569h.114v-.249h.224v.249h.114v-.569h-.114v.224zm1.073.094h.284v-.097h-.284v-.125h.306v-.097h-.42v.569h.431v-.097h-.317v-.154zm1.455 0c.099-.015.149-.068.149-.158.003-.024-.001-.049-.011-.071s-.025-.041-.045-.056c-.051-.026-.109-.037-.166-.033h-.241v.569h.114v-.238h.022c.024-.002.049.003.071.013.017.01.031.025.041.042l.124.181h.137l-.069-.111c-.031-.055-.074-.102-.126-.137zm-.115-.079h-.084v-.143h.09c.039-.003.079.001.116.014.008.007.015.017.019.027s.006.021.006.032-.004.022-.009.032-.013.018-.022.025c-.038.012-.077.016-.116.014zm1.213.079h.283v-.097h-.283v-.125h.306v-.097h-.421v.569h.432v-.097h-.316v-.154z" />
        </symbol>
        <symbol id="client3" viewBox="0 0 60 32">
            <path fill="var(--color4, #afb1b8)"
                d="M25.367 23.394c.005 0 .011.001.015.003s.009.005.013.009l.073.077c-.057.062-.127.112-.206.146-.092.037-.192.055-.292.052-.094.002-.187-.015-.274-.049-.078-.031-.149-.078-.207-.138-.059-.062-.104-.134-.134-.213-.032-.088-.048-.18-.047-.273-.001-.093.016-.186.05-.274.032-.079.08-.151.142-.213.062-.06.137-.107.22-.139.09-.033.186-.05.283-.049.09-.002.179.013.262.044.072.03.139.072.197.123l-.061.082c-.004.006-.009.011-.016.015-.007.005-.016.007-.025.006s-.019-.004-.027-.009l-.033-.022-.046-.028c-.02-.01-.04-.019-.061-.027-.027-.009-.055-.017-.083-.022-.036-.006-.072-.009-.109-.009-.07-.001-.139.012-.203.037-.06.023-.114.058-.159.103-.046.047-.081.103-.103.164-.026.069-.038.143-.037.216-.001.075.012.149.037.22.022.06.057.116.102.163.042.044.094.079.152.101.06.024.124.035.188.035.037.001.075-.002.112-.007.06-.007.118-.027.169-.058.026-.016.05-.034.072-.054.009-.009.022-.014.035-.014zm2.113-.386c.001.092-.016.184-.049.271-.03.079-.077.15-.138.21s-.135.107-.216.138c-.179.065-.377.065-.556 0-.081-.031-.154-.079-.215-.139-.061-.061-.108-.133-.139-.213-.066-.176-.066-.367 0-.543.031-.079.078-.152.139-.213.061-.058.134-.103.215-.133.179-.066.377-.066.556 0 .081.031.155.079.216.139s.107.132.138.21c.034.087.051.18.049.273zm-.192 0c.001-.074-.01-.148-.035-.218-.02-.06-.054-.116-.098-.163-.043-.045-.096-.08-.155-.103-.13-.048-.274-.048-.404 0-.059.023-.112.058-.155.103-.045.047-.078.103-.099.163-.047.142-.047.294 0 .436.021.06.054.116.099.163.043.044.096.079.155.102.13.046.274.046.404 0 .059-.023.112-.057.155-.102.044-.047.077-.103.098-.163.025-.07.036-.144.035-.218zm1.633.229l.019.049c.007-.017.014-.033.021-.049s.015-.032.024-.048l.467-.809c.009-.014.017-.023.027-.025.012-.004.025-.005.038-.004h.138v1.316h-.164v-1.009c-.001-.015-.001-.03 0-.045l-.47.821c-.006.012-.016.023-.028.03s-.026.011-.04.011h-.027c-.014 0-.028-.004-.04-.011s-.022-.018-.027-.03l-.484-.826v1.057h-.158v-1.314h.138c.013-.001.026.001.038.004.011.005.02.014.026.025l.477.81c.009.015.017.031.024.047zm1.759-.066v.493h-.183v-1.315h.408c.077-.001.154.008.228.029.059.016.114.044.161.082.041.036.072.08.091.129.022.054.032.111.031.168.001.058-.011.115-.034.168-.022.05-.056.095-.099.132-.047.04-.102.069-.162.087-.071.022-.146.032-.22.03l-.221-.003zm0-.141h.221c.048.001.096-.006.142-.02.038-.012.073-.031.102-.057.027-.024.049-.054.062-.087.015-.035.022-.073.022-.111.002-.037-.004-.073-.018-.107s-.036-.065-.064-.09c-.07-.052-.158-.077-.246-.071h-.221v.542zm2.458.636h-.145c-.014 0-.029-.004-.04-.012-.01-.008-.019-.019-.024-.03l-.124-.318h-.625l-.129.318c-.005.012-.013.022-.023.03-.012.009-.026.014-.041.013h-.145l.549-1.317h.19l.556 1.317zm-.905-.489h.516l-.218-.536c-.017-.04-.03-.082-.041-.124l-.021.069c-.006.021-.014.04-.02.056l-.216.535zm1.695-.821c.011.006.02.014.027.024l.8.992V22.35h.164v1.317h-.091c-.013 0-.026-.002-.037-.008s-.021-.015-.029-.024l-.799-.992c.001.015.001.03 0 .045v.979h-.164V22.35h.097c.011 0 .023.002.033.006zm2.34.787v.523h-.183v-.523l-.506-.793h.164c.014-.001.028.003.039.011.01.008.019.018.025.03l.316.512c.013.022.024.042.033.061s.016.037.023.056l.024-.057c.009-.021.019-.041.031-.06l.312-.515c.006-.01.015-.02.024-.028.011-.009.025-.014.039-.013h.166l-.507.796zm-7.437-3.003c.08.01.16.017.241.024 1.234-.526 2.278-1.387 3.001-2.475s1.094-2.355 1.066-3.643l-1.36-1.296c.276 1.371.147 2.788-.374 4.093s-1.412 2.446-2.575 3.296z" />
            <path fill="var(--color4, #afb1b8)"
                d="M28.345 20.08l.037.007c1.242-.847 2.19-2.029 2.719-3.394s.617-2.85.251-4.263l-1.937-1.845c.783 1.517 1.099 3.215.909 4.895s-.876 3.276-1.979 4.6zm6.569-4.512c-.329 1.415-1.128 2.691-2.279 3.639-.336.278-.699.526-1.083.741.937-.262 1.798-.726 2.517-1.356s1.277-1.408 1.63-2.276l-.786-.748z" />
            <path fill="var(--color4, #afb1b8)"
                d="M34.606 15.36l-1.118-1.066c-.021 1.215-.384 2.402-1.05 3.438s-1.611 1.884-2.737 2.454h.005c.251 0 .502-.014.751-.043 1.052-.409 1.982-1.06 2.706-1.895s1.22-1.827 1.443-2.889zm-6.099-5.554l-1.334-1.273c-1.193.439-2.219 1.211-2.943 2.215s-1.114 2.193-1.118 3.411c.004 1.346.48 2.653 1.352 3.712s2.089 1.812 3.46 2.139c1.224-1.421 1.94-3.176 2.045-5.011s-.407-3.654-1.461-5.193zm9.182 5.358c-.005-1.597-.673-3.128-1.858-4.257s-2.792-1.766-4.468-1.771c-.775-.001-1.543.135-2.265.402l8.17 7.783c.279-.688.423-1.42.422-2.157z" />
        </symbol>
        <symbol id="client4" viewBox="0 0 60 32">
            <path fill="var(--color4, #afb1b8)"
                d="M20.41 13.095h-.001c-.804 0-1.456.635-1.456 1.419v.001c0 .784.652 1.419 1.456 1.419h.001c.804 0 1.456-.635 1.456-1.419v-.001c0-.784-.652-1.419-1.456-1.419zm10.75-.453c-.002-1.089-.447-2.132-1.237-2.902s-1.861-1.204-2.978-1.206c-1.118.002-2.189.435-2.979 1.205s-1.235 1.814-1.238 2.903v6.004s8.43-.915 8.431-6.003v-.001zM16 20.616c.002.758.312 1.484.861 2.019s1.294.838 2.072.84c.777-.002 1.522-.304 2.071-.84s.859-1.261.862-2.019v-4.178S16 17.075 16 20.615zm2.933.748c-.152 0-.3-.044-.427-.126s-.225-.199-.283-.336-.073-.287-.044-.432c.03-.145.103-.279.21-.383s.244-.176.393-.205c.149-.029.303-.014.444.043s.26.153.345.276c.084.123.129.268.129.416 0 .099-.019.196-.058.287s-.095.174-.166.244c-.071.07-.156.125-.25.163s-.194.057-.295.057v-.003zm5.988-.464h-.6v.62h-.313v-1.517h.988v.253h-.675v.392h.6v.252zm1.502-.104c0 .149-.026.28-.079.393s-.128.199-.227.26c-.098.061-.21.092-.338.092-.126 0-.238-.03-.336-.091s-.175-.147-.229-.258c-.054-.113-.082-.242-.082-.388v-.075c0-.149.027-.281.08-.394s.13-.201.228-.261c.099-.061.211-.092.337-.092s.239.031.336.092c.099.06.175.148.228.261s.081.244.081.393v.068zm-.317-.069c0-.159-.028-.28-.085-.363s-.138-.124-.244-.124c-.105 0-.186.041-.243.123s-.086.201-.086.358v.074c0 .155.028.275.085.36s.139.128.246.128c.105 0 .185-.041.242-.123s.085-.203.085-.36v-.074zm1.33.395c0-.059-.021-.104-.063-.135s-.117-.065-.225-.1-.194-.07-.257-.104c-.172-.093-.258-.218-.258-.376 0-.082.023-.155.069-.219s.113-.115.199-.151c.087-.036.184-.054.292-.054s.205.02.29.059c.085.039.15.094.197.166s.071.153.071.244h-.313c0-.069-.022-.123-.066-.161s-.105-.058-.184-.058c-.076 0-.136.016-.178.049s-.064.074-.064.127c0 .049.025.091.074.124s.123.065.22.094c.178.053.307.12.389.199s.122.178.122.296c0 .131-.05.234-.149.309s-.233.111-.401.111c-.117 0-.223-.021-.319-.064s-.169-.102-.22-.176c-.05-.074-.075-.16-.075-.258h.314c0 .167.1.251.3.251.074 0 .132-.015.174-.045s.063-.073.063-.127zm1.668-.866h-.465v1.264h-.313v-1.264h-.458v-.253h1.235v.253zm1.092.607h-.6v.406h.704v.251h-1.017v-1.517h1.015v.253h-.702v.361h.6v.245zm.848.102h-.249v.555h-.313v-1.517h.564c.179 0 .317.04.415.12s.146.193.146.339c0 .103-.023.19-.068.259s-.112.124-.203.165l.328.62v.015h-.335l-.284-.555zm-.248-.254h.252c.078 0 .139-.02.182-.059s.065-.096.065-.166c0-.072-.02-.128-.061-.169s-.102-.061-.186-.061h-.251v.455zm1.893.274v.534h-.313v-1.517h.592c.114 0 .214.021.3.063s.153.101.2.178c.047.076.07.164.07.261 0 .149-.051.266-.153.352s-.242.128-.422.128h-.274zm0-.253h.279c.083 0 .145-.019.189-.058s.066-.094.066-.167c0-.074-.022-.134-.066-.18s-.104-.069-.181-.071h-.286v.476zm1.977.131h-.6v.406h.704v.251h-1.017v-1.517h1.015v.253h-.702v.361h.6v.245zm1.45-.607h-.464v1.264h-.313v-1.264h-.458v-.253h1.235v.253zm1.092.607h-.6v.406h.704v.251h-1.017v-1.517h1.015v.253h-.702v.361h.6v.245zm.849.102h-.249v.555h-.313v-1.517h.564c.179 0 .318.04.415.12s.146.193.146.339c0 .103-.022.19-.068.259s-.112.124-.203.165l.328.62v.015h-.336l-.284-.555zm-.249-.254h.252c.079 0 .139-.02.182-.059s.064-.096.064-.166c0-.072-.02-.128-.061-.169s-.102-.061-.187-.061h-.251v.455zm1.836.411c0-.059-.021-.104-.063-.135s-.117-.065-.225-.1-.194-.07-.257-.104c-.172-.093-.258-.218-.258-.376 0-.082.023-.155.069-.219s.113-.115.199-.151c.087-.036.184-.054.292-.054s.205.02.289.059c.085.039.15.094.197.166s.071.153.071.244h-.313c0-.069-.022-.123-.065-.161s-.105-.058-.185-.058c-.076 0-.136.016-.178.049s-.064.074-.064.127c0 .049.025.091.074.124.05.033.123.065.22.094.178.053.307.12.388.199s.122.178.122.296c0 .131-.05.234-.149.309s-.233.111-.401.111c-.117 0-.223-.021-.319-.064s-.169-.102-.22-.176c-.05-.074-.075-.16-.075-.258h.313c0 .167.1.251.3.251.074 0 .132-.015.174-.045s.063-.073.063-.127z" />
        </symbol>
        <symbol id="client5" viewBox="0 0 60 32">
            <path fill="var(--color4, #afb1b8)"
                d="M21.507 21.788c.082.102.125.229.123.359.004.085-.011.17-.044.249s-.083.149-.147.205c-.159.12-.355.179-.554.166h-.974V20.49h.954c.188-.013.375.041.529.151.062.052.11.117.142.191s.047.154.043.235c.006.126-.034.249-.111.348-.074.09-.176.153-.29.178.129.024.246.093.329.195zm-1.143-.344h.408c.093.007.185-.02.259-.076.031-.028.054-.062.07-.101s.021-.08.018-.122c.003-.041-.003-.083-.018-.121s-.038-.073-.068-.102c-.077-.057-.172-.085-.267-.077h-.401v.597zm.707.873c.033-.029.058-.064.075-.104s.024-.084.021-.127c.003-.044-.005-.088-.022-.128s-.043-.077-.076-.105c-.08-.059-.178-.089-.277-.082h-.428v.626h.433c.098.006.194-.022.274-.079zm2.386.45l-.531-.89h-.199v.89h-.456V20.49h.864c.218-.015.433.054.602.194.121.124.194.286.205.459s-.038.344-.141.483c-.107.123-.252.204-.412.231l.565.91h-.496zm-.73-1.201h.373c.259 0 .389-.115.389-.345.003-.047-.004-.094-.021-.138s-.042-.084-.074-.118c-.082-.068-.187-.102-.294-.092h-.378l.004.693zm3.225.742h-.91l-.161.458h-.479l.835-2.252h.517l.832 2.252h-.479l-.157-.458zm-.122-.345l-.332-.961-.332.961h.665zm3.246.804h-.453l-1.016-1.549v1.549h-.452V20.49h.452l1.016 1.558V20.49h.453v2.277zm2.586-.545c-.094.172-.236.312-.41.402-.197.1-.416.149-.637.144h-.807v-2.277h.807c.221-.006.439.042.637.14.173.088.316.226.41.397.093.185.142.39.142.597s-.049.412-.142.597zm-.519-.055c.129-.151.2-.344.2-.543s-.071-.392-.2-.543c-.156-.137-.36-.207-.567-.194h-.315v1.474h.315c.207.013.411-.057.567-.194zM26.236 7.822s5.849 2.217 5.725 5.426v5.427s-5.845-2.218-5.723-5.427l-.002-5.426zm10.937 9.582c1.105-.763 2.382-1.236 3.716-1.375V14.33c-1.537.595-2.841 1.673-3.716 3.074z" />
            <path fill="var(--color4, #afb1b8)"
                d="M36.509 17.916c.904-1.828 2.472-3.239 4.38-3.942V9.079s-8.33 3.158-8.154 7.728v7.726s.371-.141.955-.406c0-.247 0-.496.027-.747.172-2.121 1.177-4.087 2.792-5.465z" />
            <path fill="var(--color4, #afb1b8)"
                d="M35.717 20.786c.044-.536.141-1.066.291-1.582-1.006 1.19-1.615 2.666-1.742 4.222-.012.147-.019.294-.022.445.473-.228 1.024-.513 1.602-.848-.148-.736-.191-1.489-.129-2.237zm.331.028c-.055.677-.021 1.358.103 2.026 2.276-1.367 4.833-3.48 4.735-6.033v-.223c-1.626.183-3.147.896-4.33 2.031-.277.703-.448 1.444-.508 2.198z" />
        </symbol>
        <symbol id="client6" viewBox="0 0 60 32">
            <path fill="var(--color4, #afb1b8)"
                d="M30.485 15.415c-.149-.217-.22-.473-.203-.731v-1.06c0-.325.067-.572.202-.741s.365-.253.693-.252c.308 0 .526.072.655.216.141.184.209.408.194.634v.249h-.55v-.252c.002-.083-.003-.165-.016-.247-.008-.056-.036-.108-.079-.147-.056-.042-.128-.063-.199-.057-.075-.005-.15.016-.21.06-.048.043-.08.1-.091.162-.016.087-.023.174-.022.262v1.287c-.009.124.016.248.071.361.027.038.065.069.11.088s.094.026.142.02c.07.005.14-.015.195-.058.045-.042.074-.097.082-.156.013-.085.019-.172.017-.258v-.261h.55v.238c.015.236-.051.47-.19.667-.126.157-.342.236-.659.236s-.556-.084-.692-.259zm2.292.01c-.139-.165-.209-.406-.209-.724v-1.115c0-.315.069-.553.209-.715s.371-.242.697-.242c.324 0 .555.081.694.242s.21.4.21.715v1.116c0 .315-.071.557-.212.723s-.371.249-.692.249c-.32 0-.557-.084-.697-.248zm.954-.267c.05-.103.072-.217.066-.33v-1.366c.006-.111-.016-.222-.065-.324-.028-.039-.067-.07-.112-.089s-.096-.026-.145-.019c-.049-.007-.1 0-.145.019s-.085.05-.113.089c-.05.101-.073.212-.066.324v1.372c-.007.114.016.227.066.33.032.035.072.063.116.082s.093.029.141.029c.049 0 .097-.01.141-.029s.084-.047.116-.082v-.006zm1.309-2.496h.593l.446 2.058.456-2.058h.577l.058 2.971h-.426l-.045-2.065-.44 2.065h-.342l-.456-2.072-.042 2.072h-.431l.054-2.971zm2.793 0h.923c.532 0 .797.281.797.844 0 .539-.28.808-.84.807h-.314v1.32h-.57l.004-2.971zm.789 1.269c.056.007.113.002.167-.014s.104-.043.146-.079c.065-.1.094-.218.082-.335.003-.091-.006-.181-.027-.27-.008-.03-.022-.057-.042-.082s-.044-.045-.072-.06c-.079-.036-.166-.052-.254-.047h-.221v.888h.221zm1.753-1.269h.612l.628 2.971h-.531l-.124-.685h-.546l-.128.685h-.539l.628-2.971zm.523 1.941l-.213-1.247-.213 1.247h.426zm1.224-1.941h.399l.763 1.695v-1.695h.473v2.971h-.379l-.768-1.769v1.769h-.489l.001-2.971zm2.743 1.838l-.635-1.834h.534l.388 1.178.363-1.178h.523l-.627 1.834v1.133h-.547V14.5zm-13.5 2.431v.155H30.9v1.207h-.195v-1.207h-.467v-.155h1.127zm1.458 1.363h-.15c-.015.001-.03-.004-.042-.013-.011-.008-.02-.019-.025-.031l-.134-.324h-.645l-.134.324c-.004.014-.011.026-.02.037-.012.009-.027.014-.042.013h-.15l.57-1.362h.198l.577 1.357zm-.944-.506h.538l-.228-.555c-.017-.042-.031-.085-.042-.128-.008.026-.015.051-.022.072l-.02.057-.226.553zm1.926.372c.036.002.071.002.107 0 .031-.003.061-.008.091-.016.028-.006.055-.015.082-.025.025-.01.05-.022.076-.033v-.306h-.228c-.006 0-.011 0-.017-.002s-.01-.005-.014-.008-.007-.007-.009-.011-.003-.009-.003-.014v-.105h.442v.522c-.036.024-.074.046-.114.065s-.083.035-.126.046c-.047.013-.094.022-.142.028-.055.006-.111.009-.166.009-.098.001-.196-.016-.287-.051-.085-.032-.163-.081-.228-.142-.063-.062-.113-.135-.147-.216-.036-.09-.054-.186-.052-.283-.001-.097.016-.194.051-.285.033-.081.083-.154.147-.216s.143-.109.228-.141c.098-.035.201-.052.305-.051.053 0 .106.004.158.012.046.007.092.019.136.035.04.014.078.032.114.054.035.021.068.045.099.071l-.055.084c-.004.008-.011.014-.019.019s-.017.007-.026.007c-.013 0-.025-.004-.035-.011-.017-.009-.035-.019-.056-.032-.024-.014-.05-.027-.076-.037-.034-.013-.069-.023-.105-.03-.048-.008-.096-.012-.145-.012-.075-.001-.15.012-.22.038-.063.024-.121.061-.167.108-.047.049-.083.107-.106.169-.051.148-.051.307 0 .454.025.064.064.122.114.172.047.047.103.084.166.108.072.024.149.033.226.027zm1.816-.022h.622v.155h-.812V16.93h.195l-.005 1.207zm1.27.156h-.195v-1.363h.195v1.363zm.725-1.356c.011.006.022.015.029.025l.833 1.027c-.001-.016-.001-.032 0-.049v-1.015h.17v1.368h-.098c-.015.001-.029-.002-.042-.008-.012-.007-.022-.016-.031-.026l-.832-1.026v1.059h-.163V16.93h.101c.011 0 .022.002.032.006zm2.467-.007v.15h-.691v.45h.56v.145h-.56v.465h.691v.15h-.891v-1.359h.891zm-20.42-8.414l8.652 2.326v8.15l-8.652-2.325V8.517zm-.555-.695v9.242l9.761 2.625v-9.241l-9.761-2.626z" />
            <path fill="var(--color4, #afb1b8)" d="M24.34 23.979l-9.762-2.627v-9.241l9.762 2.626v9.242z" />
            <path fill="var(--color4, #afb1b8)"
                d="M19.27 8.412l8.54 2.297-3.632 3.439-8.541-2.298 3.633-3.438zm-.162-.59l-4.531 4.289 9.762 2.626 4.53-4.289-9.761-2.626zm5.781 15.637l3.98-3.769-3.98-1.071v4.84z" />
        </symbol>
        <symbol id="insta" viewBox="0 0 32 32">
            <path fill="var(--color4, #afb1b8)"
                d="M31.969 9.408c-.075-1.7-.35-2.869-.744-3.882-.406-1.075-1.031-2.038-1.85-2.838-.8-.813-1.769-1.444-2.832-1.844C25.524.45 24.361.175 22.661.1 20.948.019 20.404 0 16.06 0s-4.888.019-6.595.094c-1.7.075-2.869.35-3.882.744-1.075.406-2.038 1.031-2.838 1.85-.813.8-1.444 1.769-1.844 2.832C.507 6.539.232 7.702.157 9.402c-.081 1.713-.1 2.257-.1 6.601s.019 4.888.094 6.595c.075 1.7.35 2.869.744 3.882.406 1.075 1.038 2.038 1.85 2.838.8.813 1.769 1.444 2.832 1.844 1.019.394 2.182.669 3.882.744 1.706.075 2.25.094 6.595.094s4.888-.019 6.595-.094c1.7-.075 2.869-.35 3.882-.744 2.151-.832 3.851-2.532 4.682-4.682.394-1.019.669-2.182.744-3.882.075-1.707.094-2.251.094-6.595s-.006-4.888-.081-6.595zm-2.882 13.065c-.069 1.563-.331 2.407-.55 2.969-.538 1.394-1.644 2.5-3.038 3.038-.563.219-1.413.481-2.969.55-1.688.075-2.194.094-6.464.094s-4.782-.019-6.464-.094c-1.563-.069-2.407-.331-2.969-.55-.694-.256-1.325-.663-1.838-1.194-.531-.519-.938-1.144-1.194-1.838-.219-.563-.481-1.413-.55-2.969-.075-1.688-.094-2.194-.094-6.464s.019-4.782.094-6.464c.069-1.563.331-2.407.55-2.969.256-.694.663-1.325 1.2-1.838.519-.531 1.144-.938 1.838-1.194.563-.219 1.413-.481 2.969-.55 1.688-.075 2.194-.094 6.464-.094 4.276 0 4.782.019 6.464.094 1.563.069 2.407.331 2.969.55.694.256 1.325.662 1.838 1.194.531.519.938 1.144 1.194 1.838.219.563.481 1.413.55 2.969.075 1.688.094 2.194.094 6.464s-.019 4.77-.094 6.458z" />
            <path fill="var(--color4, #afb1b8)"
                d="M16.059 7.783c-4.538 0-8.22 3.682-8.22 8.22s3.682 8.22 8.22 8.22 8.22-3.682 8.22-8.22-3.682-8.22-8.22-8.22zm0 13.552c-2.944 0-5.332-2.388-5.332-5.332s2.388-5.332 5.332-5.332 5.332 2.388 5.332 5.332-2.388 5.332-5.332 5.332zM26.524 7.458c0 1.06-.859 1.919-1.919 1.919s-1.919-.859-1.919-1.919.859-1.919 1.919-1.919 1.919.859 1.919 1.919z" />
        </symbol>
        <symbol id="tw" viewBox="0 0 32 32">
            <path fill="var(--color4, #afb1b8)"
                d="M32 6.078c-1.19.522-2.458.868-3.78 1.036 1.36-.812 2.398-2.088 2.886-3.626-1.268.756-2.668 1.29-4.16 1.588C25.742 3.794 24.026 3 22.154 3c-3.632 0-6.556 2.948-6.556 6.562 0 .52.044 1.02.152 1.496-5.454-.266-10.28-2.88-13.522-6.862-.566.982-.898 2.106-.898 3.316 0 2.272 1.17 4.286 2.914 5.452-1.054-.02-2.088-.326-2.964-.808v.072c0 3.188 2.274 5.836 5.256 6.446-.534.146-1.116.216-1.72.216-.42 0-.844-.024-1.242-.112.85 2.598 3.262 4.508 6.13 4.57-2.232 1.746-5.066 2.798-8.134 2.798-.538 0-1.054-.024-1.57-.09C2.906 27.93 6.35 29 10.064 29c12.072 0 18.672-10 18.672-18.668 0-.29-.01-.57-.024-.848C30.014 8.56 31.108 7.406 32 6.078z" />
        </symbol>
        <symbol id="fb" viewBox="0 0 32 32">
            <path fill="var(--color4, #afb1b8)"
                d="M21.329 5.313h2.921V.225C23.746.156 22.013 0 19.994 0c-4.212 0-7.097 2.649-7.097 7.519V12H8.249v5.688h4.648V32h5.699V17.689h4.46l.708-5.688h-5.169V8.082c.001-1.644.444-2.769 2.735-2.769z" />
        </symbol>
        <symbol id="in" viewBox="0 0 32 32">
            <path fill="var(--color4, #afb1b8)"
                d="M31.992 32v-.001H32V20.263c0-5.741-1.236-10.164-7.948-10.164-3.227 0-5.392 1.771-6.276 3.449h-.093v-2.913h-6.364v21.364h6.627V21.42c0-2.785.528-5.479 3.977-5.479 3.399 0 3.449 3.179 3.449 5.657v10.401h6.62zM.528 10.636h6.635V32H.528V10.636zM3.843 0C1.722 0 0 1.721 0 3.843s1.721 3.879 3.843 3.879c2.121 0 3.843-1.757 3.843-3.879C7.685 1.722 5.963 0 3.843 0z" />
        </symbol>
    </defs>
</svg>